<svg t="1658503986106" class="icon" viewBox="0 0 1024 1024" version="1.1" xmlns="http://www.w3.org/2000/svg" p-id="4385" width="32" height="32"><path d="M672 893.344V800a32 32 0 0 1 64 0v93.344A192.16 192.16 0 0 0 893.344 736H800a32 32 0 0 1 0-64h93.344A192.16 192.16 0 0 0 736 514.656V608a32 32 0 0 1-64 0v-93.344A192.16 192.16 0 0 0 514.656 672H608a32 32 0 0 1 0 64h-93.344A192.16 192.16 0 0 0 672 893.344z m224-445.376a319.712 319.712 0 0 0-64-37.344V224a32 32 0 0 0-32-32H160a32 32 0 0 0-32 32v512a32 32 0 0 0 32 32h230.4c4.512 22.272 11.36 43.68 20.224 64H128a64 64 0 0 1-64-64V192a64 64 0 0 1 64-64h704a64 64 0 0 1 64 64v256zM704 960a256 256 0 1 1 0-512 256 256 0 0 1 0 512z" fill="currentColor" p-id="4386"></path></svg>