<svg t="1659246742988" class="icon" viewBox="0 0 1024 1024" version="1.1" xmlns="http://www.w3.org/2000/svg" p-id="13626" width="32" height="32"><path d="M909.653333 407.466667l-80.64-26.88 37.973334-75.946667A42.666667 42.666667 0 0 0 858.88 256L768 165.12a42.666667 42.666667 0 0 0-49.066667-8.106667l-75.946666 37.973334-26.88-80.64A42.666667 42.666667 0 0 0 576 85.333333h-128a42.666667 42.666667 0 0 0-40.533333 29.013334l-26.88 80.64-75.946667-37.973334A42.666667 42.666667 0 0 0 256 165.12L165.12 256a42.666667 42.666667 0 0 0-8.106667 49.066667l37.973334 75.946666-80.64 26.88a42.666667 42.666667 0 0 0-29.013334 40.106667v128a42.666667 42.666667 0 0 0 29.013334 40.533333l80.64 26.88-37.973334 75.946667A42.666667 42.666667 0 0 0 165.12 768L256 858.88a42.666667 42.666667 0 0 0 49.066667 8.106667l75.946666-37.973334 26.88 80.64a42.666667 42.666667 0 0 0 40.533334 29.013334h128a42.666667 42.666667 0 0 0 40.533333-29.013334l26.88-80.64 75.946667 37.973334a42.666667 42.666667 0 0 0 48.213333-8.106667L858.88 768a42.666667 42.666667 0 0 0 8.106667-49.066667l-37.973334-75.946666 80.64-26.88a42.666667 42.666667 0 0 0 29.013334-40.106667v-128a42.666667 42.666667 0 0 0-29.013334-40.533333zM853.333333 545.28l-51.2 17.066667A85.333333 85.333333 0 0 0 752.64 682.666667l24.32 48.64-46.933333 46.933333-47.36-25.6a85.333333 85.333333 0 0 0-119.04 49.493333l-17.066667 51.2h-67.84l-17.066667-51.2A85.333333 85.333333 0 0 0 341.333333 752.64l-48.64 24.32-46.933333-46.933333 25.6-47.36a85.333333 85.333333 0 0 0-49.493333-120.32l-51.2-17.066667v-66.56l51.2-17.066667A85.333333 85.333333 0 0 0 271.36 341.333333l-24.32-47.36 46.933333-46.933333L341.333333 271.36a85.333333 85.333333 0 0 0 120.32-49.493333l17.066667-51.2h66.56l17.066667 51.2A85.333333 85.333333 0 0 0 682.666667 271.36l48.64-24.32 46.933333 46.933333-25.6 47.36a85.333333 85.333333 0 0 0 49.493333 119.04l51.2 17.066667zM512 341.333333a170.666667 170.666667 0 1 0 170.666667 170.666667 170.666667 170.666667 0 0 0-170.666667-170.666667z m0 256a85.333333 85.333333 0 1 1 85.333333-85.333333 85.333333 85.333333 0 0 1-85.333333 85.333333z" p-id="13627" fill="currentColor"></path></svg>