<svg t="1658417608007" class="icon" viewBox="0 0 1025 1024" version="1.1" xmlns="http://www.w3.org/2000/svg" p-id="11648" width="32" height="32"><path d="M1024.000488 768l0 73.142857q0 14.848-10.825143 25.746286t-25.746286 10.825143l-950.857143 0q-14.848 0-25.746286-10.825143t-10.825143-25.746286l0-73.142857q0-14.848 10.825143-25.746286t25.746286-10.825143l950.857143 0q14.848 0 25.746286 10.825143t10.825143 25.746286zM804.571916 548.571429l0 73.142857q0 14.848-10.825143 25.746286t-25.746286 10.825143l-731.428571 0q-14.848 0-25.746286-10.825143t-10.825143-25.746286l0-73.142857q0-14.848 10.825143-25.746286t25.746286-10.825143l731.428571 0q14.848 0 25.746286 10.825143t10.825143 25.746286zM950.85763 329.142857l0 73.142857q0 14.848-10.825143 25.746286t-25.746286 10.825143l-877.714286 0q-14.848 0-25.746286-10.825143t-10.825143-25.746286l0-73.142857q0-14.848 10.825143-25.746286t25.746286-10.825143l877.714286 0q14.848 0 25.746286 10.825143t10.825143 25.746286zM731.429059 109.714286l0 73.142857q0 14.848-10.825143 25.746286t-25.746286 10.825143l-658.285714 0q-14.848 0-25.746286-10.825143t-10.825143-25.746286l0-73.142857q0-14.848 10.825143-25.746286t25.746286-10.825143l658.285714 0q14.848 0 25.746286 10.825143t10.825143 25.746286z" p-id="11649" fill="currentColor"></path></svg>