<svg t="1659245821574" class="icon" viewBox="0 0 1024 1024" version="1.1" xmlns="http://www.w3.org/2000/svg" p-id="13030" width="32" height="32"><path d="M853.333333 690.346667V333.653333A128 128 0 1 0 690.346667 170.666667H333.653333A128 128 0 1 0 170.666667 333.653333v356.693334A128 128 0 1 0 333.653333 853.333333h356.693334A128 128 0 1 0 853.333333 690.346667zM810.666667 170.666667a42.666667 42.666667 0 1 1-42.666667 42.666666 42.666667 42.666667 0 0 1 42.666667-42.666666zM213.333333 170.666667a42.666667 42.666667 0 1 1-42.666666 42.666666 42.666667 42.666667 0 0 1 42.666666-42.666666z m0 682.666666a42.666667 42.666667 0 1 1 42.666667-42.666666 42.666667 42.666667 0 0 1-42.666667 42.666666z m477.013334-85.333333H333.653333A128 128 0 0 0 256 690.346667V333.653333A128 128 0 0 0 333.653333 256h356.693334A128 128 0 0 0 768 333.653333v356.693334A128 128 0 0 0 690.346667 768zM810.666667 853.333333a42.666667 42.666667 0 1 1 42.666666-42.666666 42.666667 42.666667 0 0 1-42.666666 42.666666z" p-id="13031" fill="currentColor"></path></svg>