<svg t="1657812513552" class="icon" viewBox="0 0 1024 1024" version="1.1" xmlns="http://www.w3.org/2000/svg" p-id="13619" width="32" height="32"><path d="M691.2 778.666667H322.133333c-1.173333 0-2.133333 2.4-2.133333 5.333333v64c0 2.933333 0.96 5.333333 2.133333 5.333333h369.066667c1.173333 0 2.133333-2.4 2.133333-5.333333v-64c0-2.933333-0.96-5.333333-2.133333-5.333333z" p-id="13620" fill="currentColor"></path><path d="M543.573333 711.093333H469.76a17.92 17.92 0 0 0-0.426667 5.333334v64a17.92 17.92 0 0 0 0.426667 5.333333h73.813333a17.92 17.92 0 0 0 0.426667-5.333333v-64a17.92 17.92 0 0 0-0.426667-5.333334z" p-id="13621" fill="currentColor"></path><path d="M96 736h821.333333a5.333333 5.333333 0 0 0 5.333334-5.333333V176a5.333333 5.333333 0 0 0-5.333334-5.333333H96a5.333333 5.333333 0 0 0-5.333333 5.333333v554.666667a5.333333 5.333333 0 0 0 5.333333 5.333333z m69.333333-485.333333a5.333333 5.333333 0 0 1 5.333334-5.333334h672a5.333333 5.333333 0 0 1 5.333333 5.333334v405.333333a5.333333 5.333333 0 0 1-5.333333 5.333333H170.666667a5.333333 5.333333 0 0 1-5.333334-5.333333z" p-id="13622" fill="currentColor"></path><path d="M506.666667 624.106667m-26.666667 0a26.666667 26.666667 0 1 0 53.333333 0 26.666667 26.666667 0 1 0-53.333333 0Z" p-id="13623" fill="currentColor"></path></svg>