<svg t="1658571550589" class="icon" viewBox="0 0 1024 1024" version="1.1" xmlns="http://www.w3.org/2000/svg" p-id="4096" width="32" height="32"><path d="M788.928 705.984a44.992 44.992 0 0 1-32.896-14.08c-18.752-18.752-18.752-48.512 0-65.728l112.64-112.64-112.64-112.64c-18.752-18.752-18.752-48.448 0-65.664 18.816-18.816 48.512-18.816 65.728 0l147.072 147.008c9.344 9.408 14.08 20.352 14.08 32.896a42.624 42.624 0 0 1-14.08 32.832L821.76 695.04a63.36 63.36 0 0 1-32.832 10.944zM236.672 705.984a44.992 44.992 0 0 1-32.896-14.08L56.768 544.832A42.624 42.624 0 0 1 42.688 512c0-12.544 4.672-25.024 14.08-32.832l147.008-147.072c18.816-18.752 48.512-18.752 65.728 0 18.752 18.752 18.752 48.512 0 65.728L155.328 512l112.64 112.64c18.752 18.752 18.752 48.512 0 65.728a38.464 38.464 0 0 1-31.36 15.616z" fill="currentColor" p-id="4097"></path><path d="M934.4 558.912H89.6A46.08 46.08 0 0 1 42.688 512a46.08 46.08 0 0 1 46.912-46.912h844.8a46.08 46.08 0 0 1 46.912 46.912 46.08 46.08 0 0 1-46.912 46.912zM659.072 283.584a45.056 45.056 0 0 1-32.896-14.08L512 155.328l-112.64 112.64c-18.752 18.752-48.512 18.752-65.728 0-18.752-18.816-18.752-48.512 0-65.728L480.704 55.168c18.752-18.752 48.512-18.752 65.728 0l147.008 147.072c18.816 18.752 18.816 48.512 0 65.728-10.88 10.88-21.888 15.616-34.368 15.616zM512 981.312a44.992 44.992 0 0 1-32.832-14.08l-147.072-147.008c-18.752-18.816-18.752-48.512 0-65.728 18.752-18.752 48.512-18.752 65.728 0l112.64 112.64 112.64-112.64c18.752-18.752 48.448-18.752 65.664 0 18.752 18.752 18.752 48.512 0 65.728l-147.072 147.008c-4.672 10.944-17.152 14.08-29.696 14.08z" fill="currentColor" p-id="4098"></path><path d="M512 981.312a46.08 46.08 0 0 1-46.912-46.912V89.6A46.08 46.08 0 0 1 512 42.688a46.08 46.08 0 0 1 46.912 46.912v844.8a46.08 46.08 0 0 1-46.912 46.912z" fill="currentColor" p-id="4099"></path></svg>