<svg t="1658571376210" class="icon" viewBox="0 0 1024 1024" version="1.1" xmlns="http://www.w3.org/2000/svg" p-id="22532" width="32" height="32"><path d="M934.4 981.312H89.6a46.08 46.08 0 0 1-46.912-46.848V156.672a46.08 46.08 0 0 1 46.912-46.848h367.616a46.08 46.08 0 0 1 46.976 46.848 46.08 46.08 0 0 1-46.976 46.848h-320.64V887.68h750.912V515.904a46.08 46.08 0 0 1 46.912-46.848 46.08 46.08 0 0 1 46.912 46.848v418.56a47.04 47.04 0 0 1-46.912 46.848z" fill="currentColor" p-id="22533"></path><path d="M330.496 739.2a42.624 42.624 0 0 1-32.832-14.016 44.928 44.928 0 0 1-14.08-32.768V504.96c0-12.48 4.672-24.96 14.08-32.768L713.792 56.704a42.624 42.624 0 0 1 32.896-14.08c12.48 0 24.96 4.736 32.832 14.08l187.712 187.456c18.816 18.752 18.816 48.384 0 65.6L551.104 725.12a45.056 45.056 0 0 1-32.832 14.08H330.496z m46.976-215.488v120.32H497.92l369.216-367.104-120.448-121.792-369.28 368.576z" fill="currentColor" p-id="22534"></path></svg>