<svg t="1659245767951" class="icon" viewBox="0 0 1024 1024" version="1.1" xmlns="http://www.w3.org/2000/svg" p-id="12386" width="32" height="32"><path d="M810.666667 170.666667H213.333333a128 128 0 0 0-128 128v426.666666a128 128 0 0 0 128 128h597.333334a128 128 0 0 0 128-128V298.666667a128 128 0 0 0-128-128zM213.333333 768a42.666667 42.666667 0 0 1-42.666666-42.666667v-103.253333l140.8-140.373333a42.666667 42.666667 0 0 1 59.733333 0L657.493333 768z m640-42.666667a42.666667 42.666667 0 0 1-42.666666 42.666667h-32.853334l-162.56-163.413333 37.546667-37.546667a42.666667 42.666667 0 0 1 59.733333 0l140.8 140.373333z m0-138.24l-80.213333-79.786666a130.56 130.56 0 0 0-180.906667 0l-37.546666 37.546666-122.88-122.88a130.56 130.56 0 0 0-180.906667 0L170.666667 501.76V298.666667a42.666667 42.666667 0 0 1 42.666666-42.666667h597.333334a42.666667 42.666667 0 0 1 42.666666 42.666667z" p-id="12387" fill="currentColor"></path></svg>