<svg t="1660454074386" class="icon" viewBox="0 0 1024 1024" version="1.1" xmlns="http://www.w3.org/2000/svg" p-id="25481" width="32" height="32"><path d="M819.2 153.6H204.8c-84.48 0-153.6 71.68-153.6 158.72v399.36C51.2 798.72 120.32 870.4 204.8 870.4h614.4c84.48 0 153.6-71.68 153.6-158.72V312.32C972.8 225.28 903.68 153.6 819.2 153.6z m51.2 558.08c0 28.16-23.04 53.76-51.2 53.76H204.8c-28.16 0-51.2-23.04-51.2-53.76V312.32c0-28.16 23.04-53.76 51.2-53.76h614.4c28.16 0 51.2 23.04 51.2 53.76v399.36z" p-id="25482" fill="currentColor"></path><path d="M704 614.4h-384c-20.48 0-38.4 23.04-38.4 51.2s17.92 51.2 38.4 51.2h384c20.48 0 38.4-23.04 38.4-51.2s-17.92-51.2-38.4-51.2zM371.2 512c0-28.16-23.04-51.2-51.2-51.2H256c-28.16 0-51.2 23.04-51.2 51.2s23.04 51.2 51.2 51.2h64c28.16 0 51.2-23.04 51.2-51.2zM256 409.6h64c28.16 0 51.2-23.04 51.2-51.2s-23.04-51.2-51.2-51.2H256c-28.16 0-51.2 23.04-51.2 51.2s23.04 51.2 51.2 51.2zM473.6 563.2h76.8c28.16 0 51.2-23.04 51.2-51.2s-23.04-51.2-51.2-51.2h-76.8c-28.16 0-51.2 23.04-51.2 51.2s23.04 51.2 51.2 51.2zM473.6 409.6h76.8c28.16 0 51.2-23.04 51.2-51.2s-23.04-51.2-51.2-51.2h-76.8c-28.16 0-51.2 23.04-51.2 51.2s23.04 51.2 51.2 51.2zM768 460.8h-64c-28.16 0-51.2 23.04-51.2 51.2s23.04 51.2 51.2 51.2H768c28.16 0 51.2-23.04 51.2-51.2s-23.04-51.2-51.2-51.2zM768 307.2h-64c-28.16 0-51.2 23.04-51.2 51.2s23.04 51.2 51.2 51.2H768c28.16 0 51.2-23.04 51.2-51.2s-23.04-51.2-51.2-51.2z" p-id="25483" fill="currentColor"></path></svg>