<svg t="1659250366152" class="icon" viewBox="0 0 1024 1024" version="1.1" xmlns="http://www.w3.org/2000/svg" p-id="15020" width="32" height="32"><path d="M437.76 213.333333L512 170.666667l298.666667 170.666666-134.4 78.08a42.666667 42.666667 0 0 0-15.786667 58.026667 42.666667 42.666667 0 0 0 58.453333 15.786667l198.4-114.773334a42.666667 42.666667 0 0 0 0-74.24l-384-221.866666a42.666667 42.666667 0 0 0-42.666666 0l-95.573334 55.466666a42.666667 42.666667 0 0 0-15.786666 58.453334 42.666667 42.666667 0 0 0 58.453333 17.066666zM158.293333 97.706667a42.666667 42.666667 0 0 0-60.586666 60.586666L193.706667 256l-85.333334 49.92a42.666667 42.666667 0 0 0 0 74.24l384 221.866667a42.666667 42.666667 0 0 0 42.666667 0l4.266667-2.56 45.653333 45.653333-71.253333 42.666667-364.373334-212.906667a42.666667 42.666667 0 1 0-42.666666 74.24l384 221.866667a42.666667 42.666667 0 0 0 21.333333 5.546666 42.666667 42.666667 0 0 0 21.333333-5.546666l112.213334-64.853334 45.653333 45.653334L512 853.333333l-362.666667-207.786666a42.666667 42.666667 0 0 0-42.666666 74.24l384 221.866666a42.666667 42.666667 0 0 0 42.666666 0l220.586667-128 111.786667 112.213334a42.666667 42.666667 0 0 0 60.586666 0 42.666667 42.666667 0 0 0 0-60.586667zM213.333333 341.333333l42.666667-24.746666 117.333333 117.333333z m661.333334 133.546667l-90.453334 52.053333a42.666667 42.666667 0 0 0 42.666667 74.24l90.453333-52.053333a42.666667 42.666667 0 1 0-42.666666-74.24z" p-id="15021" fill="currentColor"></path></svg>