<svg t="1659535800418" class="icon" viewBox="0 0 1024 1024" version="1.1" xmlns="http://www.w3.org/2000/svg" p-id="19836" width="32" height="32"><path d="M516.693333 656.64l-165.546666 165.546667a107.52 107.52 0 0 1-149.333334 0 105.386667 105.386667 0 0 1 0-149.333334l165.546667-165.546666a42.666667 42.666667 0 1 0-60.586667-60.586667l-165.546666 165.973333a191.146667 191.146667 0 0 0 270.08 270.08l165.973333-165.546666a42.666667 42.666667 0 0 0-60.586667-60.586667z m366.08-515.413333a191.573333 191.573333 0 0 0-270.08 0l-165.973333 165.546666a42.666667 42.666667 0 1 0 60.586667 60.586667l165.546666-165.546667a107.52 107.52 0 0 1 149.333334 0 105.386667 105.386667 0 0 1 0 149.333334l-165.546667 165.546666a42.666667 42.666667 0 0 0 0 60.586667 42.666667 42.666667 0 0 0 60.586667 0l165.546666-165.973333a191.573333 191.573333 0 0 0 0-270.08zM376.746667 647.253333a42.666667 42.666667 0 0 0 30.293333 12.373334 42.666667 42.666667 0 0 0 30.293333-12.373334l209.92-209.92a42.666667 42.666667 0 1 0-60.586666-60.586666l-209.92 209.92a42.666667 42.666667 0 0 0 0 60.586666z" p-id="19837" fill="currentColor"></path></svg>