<svg t="1659532799958" class="icon" viewBox="0 0 1024 1024" version="1.1" xmlns="http://www.w3.org/2000/svg" p-id="5084" width="32" height="32"><path d="M710.892308 498.215385v277.661538c0 13.784615-11.815385 27.569231-27.569231 27.569231H405.661538L236.307692 972.8c11.815385 7.876923 25.6 11.815385 39.384616 11.815385h472.615384c39.384615 0 72.861538-33.476923 72.861539-72.861539V387.938462l-110.276923 110.276923zM512 947.2c-31.507692 0-55.138462-23.630769-55.138462-55.138462s23.630769-55.138462 55.138462-55.138461 55.138462 23.630769 55.138462 55.138461-23.630769 55.138462-55.138462 55.138462z m-309.169231-49.230769l112.246154-112.246154v-1.969231l397.784615-397.784615v1.969231l108.307693-108.307693v-1.969231l137.846154-137.846153c13.784615-11.815385 15.753846-33.476923 5.907692-43.323077L925.538462 59.076923c-11.815385-11.815385-31.507692-9.846154-43.323077 5.907692l-61.046154 61.046154v-13.784615C821.169231 72.861538 787.692308 39.384615 748.307692 39.384615H275.692308c-39.384615 0-72.861538 33.476923-72.861539 72.861539v632.123077l-139.815384 139.815384c-11.815385 11.815385-13.784615 31.507692-3.938462 41.353847l37.415385 39.384615c11.815385 11.815385 31.507692 9.846154 43.323077-5.907692l63.015384-61.046154z m108.307693-685.292308c0-13.784615 11.815385-27.569231 27.56923-27.569231h344.615385c13.784615 0 27.569231 11.815385 27.569231 27.569231V236.307692L311.138462 634.092308V212.676923z" p-id="5085" fill="currentColor"></path></svg>