<svg t="1659532758877" class="icon" viewBox="0 0 1024 1024" version="1.1" xmlns="http://www.w3.org/2000/svg" p-id="4786" width="32" height="32"><path d="M846.769231 78.769231c0-43.323077-35.446154-78.769231-78.769231-78.769231H256c-43.323077 0-78.769231 35.446154-78.769231 78.769231v866.461538c0 43.323077 35.446154 78.769231 78.769231 78.769231h512c43.323077 0 78.769231-35.446154 78.769231-78.769231V78.769231zM512 984.615385c-33.476923 0-59.076923-25.6-59.076923-59.076923s25.6-59.076923 59.076923-59.076924 59.076923 25.6 59.076923 59.076924-25.6 59.076923-59.076923 59.076923z m216.615385-187.076923c0 15.753846-13.784615 29.538462-29.538462 29.538461h-374.153846c-15.753846 0-29.538462-13.784615-29.538462-29.538461v-610.461539c0-15.753846 13.784615-29.538462 29.538462-29.538461h374.153846c15.753846 0 29.538462 13.784615 29.538462 29.538461v610.461539z" p-id="4787" fill="currentColor"></path></svg>