<svg t="1659252360876" class="icon" viewBox="0 0 1024 1024" version="1.1" xmlns="http://www.w3.org/2000/svg" p-id="15616" width="32" height="32"><path d="M682.666667 426.666667h-85.333334V341.333333a42.666667 42.666667 0 0 0-42.666666-42.666666H341.333333a42.666667 42.666667 0 0 0-42.666666 42.666666v213.333334a42.666667 42.666667 0 0 0 42.666666 42.666666h85.333334v85.333334a42.666667 42.666667 0 0 0 42.666666 42.666666h213.333334a42.666667 42.666667 0 0 0 42.666666-42.666666v-213.333334a42.666667 42.666667 0 0 0-42.666666-42.666666z m-256 42.666666v42.666667H384V384h128v42.666667h-42.666667a42.666667 42.666667 0 0 0-42.666666 42.666666z m213.333333 170.666667h-128v-128h128z m256 139.946667V244.053333A85.333333 85.333333 0 1 0 779.946667 128H244.053333A85.333333 85.333333 0 1 0 128 244.053333v535.893334A85.333333 85.333333 0 1 0 244.053333 896h535.893334A85.333333 85.333333 0 1 0 896 779.946667z m-85.333333 0a81.493333 81.493333 0 0 0-30.72 30.72H244.053333a81.493333 81.493333 0 0 0-30.72-30.72V244.053333A81.493333 81.493333 0 0 0 244.053333 213.333333h535.893334a81.493333 81.493333 0 0 0 30.72 30.72z" p-id="15617" fill="currentColor"></path></svg>