<svg t="1658029699188" class="icon" viewBox="0 0 1024 1024" version="1.1" xmlns="http://www.w3.org/2000/svg" p-id="9068" width="32" height="32"><path d="M467.2 624c12.8 12.8 30.4 20.8 46.4 20.8 17.6 0 33.6-8 46.4-20.8l449.6-424c17.6-17.6 17.6-43.2 0-59.2s-43.2-17.6-59.2 0l-432 416L73.6 139.2C56 121.6 30.4 121.6 14.4 139.2s-17.6 43.2 0 59.2L467.2 624z" p-id="9069" fill="currentColor"></path><path d="M955.2 392l-441.6 416-441.6-416c-17.6-17.6-43.2-17.6-59.2 0s-17.6 43.2 0 59.2l454.4 424c12.8 12.8 30.4 20.8 46.4 20.8 17.6 0 33.6-8 46.4-20.8l449.6-424c17.6-17.6 17.6-43.2 0-59.2-11.2-17.6-36.8-17.6-54.4 0z" p-id="9070" fill="currentColor"></path></svg>