<svg t="1659022568790" class="icon" viewBox="0 0 1024 1024" version="1.1" xmlns="http://www.w3.org/2000/svg" p-id="1993" width="32" height="32"><path d="M384 464c0 26.4-21.6 48-48 48h-96c-26.4 0-48-21.6-48-48v-96c0-26.4 21.6-48 48-48h96c26.4 0 48 21.6 48 48v96zM704 464c0 26.4-21.6 48-48 48h-96c-26.4 0-48-21.6-48-48v-96c0-26.4 21.6-48 48-48h96c26.4 0 48 21.6 48 48v96zM384 784c0 26.4-21.6 48-48 48h-96c-26.4 0-48-21.6-48-48v-96c0-26.4 21.6-48 48-48h96c26.4 0 48 21.6 48 48v96zM704 784c0 26.4-21.6 48-48 48h-96c-26.4 0-48-21.6-48-48v-96c0-26.4 21.6-48 48-48h96c26.4 0 48 21.6 48 48v96zM912.096 160L1024 48.096V0h-48.096L864 111.904 752.096 0H704v48.096L815.904 160 704 271.904V320h48.096L864 208.096 975.904 320H1024V271.904zM0 768h64v128H0v-128zM0 576h64v128H0v-128zM832 448h64v128h-64v-128zM832 832h64v128h-64v-128zM832 640h64v128h-64v-128zM0 384h64v128H0v-128zM0 192h64v128H0V192zM512 128h128v64h-128V128zM320 128h128v64h-128V128zM128 128h128v64H128V128zM448 960h128v64h-128v-64zM640 960h128v64h-128v-64zM256 960h128v64H256v-64zM64 960h128v64H64v-64z" p-id="1994" fill="currentColor"></path></svg>