<svg t="1662370358590" class="icon" viewBox="0 0 1024 1024" version="1.1" xmlns="http://www.w3.org/2000/svg" p-id="7486" width="32" height="32"><path d="M274.4 220.6l43.8-43.8c18.6-18.6 49-18.8 67.8-0.2L689.8 478c19 18.8 19 49.4 0 68.2L386 847.4c-18.8 18.6-49 18.6-67.8-0.2l-43.8-43.8c-19.4-19.4-18.6-50.8 1.6-69.4l155.2-142.2H48c-26.6 0-48-21.4-48-48v-64c0-26.6 21.4-48 48-48h383l-155.2-142.2c-20-18.2-20.8-49.8-1.4-69zM1024 704V320c0-106-86-192-192-192h-168c-13.2 0-24 10.8-24 24v80c0 13.2 10.8 24 24 24h168c35.4 0 64 28.6 64 64v384c0 35.4-28.6 64-64 64h-168c-13.2 0-24 10.8-24 24v80c0 13.2 10.8 24 24 24h168c106 0 192-86 192-192z" p-id="7487" fill="currentColor"></path></svg>