<svg t="1658329016851" class="icon" viewBox="0 0 1024 1024" version="1.1" xmlns="http://www.w3.org/2000/svg" p-id="2662" width="32" height="32"><path d="M725.333333 213.333333H298.666667v85.333334h-85.333334v426.666666h85.333334v85.333334h426.666666v-85.333334h85.333334V298.666667h-85.333334v-85.333334z m0-85.333333V64h234.666667v234.666667h-64v426.666666h64v234.666667H725.333333v-64H298.666667v64H64V725.333333h64V298.666667H64V64h234.666667v64h426.666666zM149.333333 213.333333h64V149.333333H149.333333v64z m0 661.333334h64v-64H149.333333v64z m661.333334 0h64v-64h-64v64z m0-725.333334v64h64V149.333333h-64z" p-id="2663" fill="currentColor"></path></svg>