<svg t="1660406516025" class="icon" viewBox="0 0 1024 1024" version="1.1" xmlns="http://www.w3.org/2000/svg" p-id="14731" width="32" height="32"><path d="M554.666667 128a298.666667 298.666667 0 0 0 0 597.333333 213.333333 213.333333 0 0 0 0-426.666666 128 128 0 0 0 0 256 42.666667 42.666667 0 0 0 0-85.333334 42.666667 42.666667 0 0 1 0-85.333333 128 128 0 0 1 0 256 213.333333 213.333333 0 0 1 0-426.666667 298.666667 298.666667 0 0 1 0 597.333334 384 384 0 0 1-384-384 42.666667 42.666667 0 0 0-85.333334 0 469.333333 469.333333 0 0 0 469.333334 469.333333 384 384 0 0 0 0-768z" p-id="14732" fill="currentColor"></path></svg>