<svg t="1659247210711" class="icon" viewBox="0 0 1024 1024" version="1.1" xmlns="http://www.w3.org/2000/svg" p-id="14078" width="32" height="32"><path d="M554.666667 298.666667h-128a42.666667 42.666667 0 0 0-42.666667 42.666666v341.333334a42.666667 42.666667 0 0 0 85.333333 0v-85.333334h85.333334a128 128 0 0 0 128-128v-42.666666a128 128 0 0 0-128-128z m42.666666 170.666666a42.666667 42.666667 0 0 1-42.666666 42.666667h-85.333334V384h85.333334a42.666667 42.666667 0 0 1 42.666666 42.666667z m-85.333333-384a426.666667 426.666667 0 1 0 426.666667 426.666667A426.666667 426.666667 0 0 0 512 85.333333z m0 768a341.333333 341.333333 0 1 1 341.333333-341.333333 341.333333 341.333333 0 0 1-341.333333 341.333333z" p-id="14079" fill="currentColor"></path></svg>